HIERARCHY
ROOT Model_Hips
{
	OFFSET 0.000000 96.915077 0.000000
	CHANNELS 6 Xposition Yposition Zposition Xrotation Yrotation Zrotation
	JOINT Model_Spine
	{
		OFFSET 0.000000 11.137703 -1.289900
		CHANNELS 3 Xrotation Yrotation Zrotation
		JOINT Model_Spine1
		{
			OFFSET 0.000000 12.993942 -1.504922
			CHANNELS 3 Xrotation Yrotation Zrotation
			JOINT Model_Spine2
			{
				OFFSET 0.000000 14.850220 -1.719911
				CHANNELS 3 Xrotation Yrotation Zrotation
				JOINT Model_Neck
				{
					OFFSET 0.000000 16.706543 -1.934903
					CHANNELS 3 Xrotation Yrotation Zrotation
					JOINT Model_Head
					{
						OFFSET 0.000000 10.471298 2.002100
						CHANNELS 3 Xrotation Yrotation Zrotation
						JOINT Model_HeadTop_End
						{
							OFFSET 0.000000 20.842606 3.985100
							CHANNELS 3 Xrotation Yrotation Zrotation
							End Site
							{
								OFFSET 0.000000 21.220154 0.000000
							}
						}
					}
				}
				JOINT Model_LeftShoulder
				{
					OFFSET 7.008500 14.768600 -1.919946
					CHANNELS 3 Xrotation Yrotation Zrotation
					JOINT Model_LeftArm
					{
						OFFSET 14.126271 -3.718048 0.029937
						CHANNELS 3 Xrotation Yrotation Zrotation
						JOINT Model_LeftForeArm
						{
							OFFSET 28.282801 0.000000 0.000000
							CHANNELS 3 Xrotation Yrotation Zrotation
							JOINT Model_LeftHand
							{
								OFFSET 26.204689 0.000000 0.000000
								CHANNELS 3 Xrotation Yrotation Zrotation
								End Site
								{
									OFFSET 26.204704 0.000000 0.000000
								}
							}
						}
					}
				}
				JOINT Model_RightShoulder
				{
					OFFSET -7.008500 14.768555 -1.949840
					CHANNELS 3 Xrotation Yrotation Zrotation
					JOINT Model_RightArm
					{
						OFFSET -14.126281 -3.718018 -0.029932
						CHANNELS 3 Xrotation Yrotation Zrotation
						JOINT Model_RightForeArm
						{
							OFFSET -28.283798 0.000000 -0.000001
							CHANNELS 3 Xrotation Yrotation Zrotation
							JOINT Model_RightHand
							{
								OFFSET -26.204193 0.000000 -0.000001
								CHANNELS 3 Xrotation Yrotation Zrotation
								End Site
								{
									OFFSET -26.204208 0.000000 -0.000001
								}
							}
						}
					}
				}
			}
		}
	}
	JOINT Model_LeftUpLeg
	{
		OFFSET 8.327700 -6.193199 -0.402800
		CHANNELS 3 Xrotation Yrotation Zrotation
		JOINT Model_LeftLeg
		{
			OFFSET 0.735802 -42.108742 -0.610721
			CHANNELS 3 Xrotation Yrotation Zrotation
			JOINT Model_LeftFoot
			{
				OFFSET -0.735806 -36.833748 -0.172876
				CHANNELS 3 Xrotation Yrotation Zrotation
				JOINT Model_LeftToeBase
				{
					OFFSET -0.565857 -11.977769 16.297714
					CHANNELS 3 Xrotation Yrotation Zrotation
					JOINT Model_LeftToe_End
					{
						OFFSET -0.111712 -0.312793 7.857784
						CHANNELS 3 Xrotation Yrotation Zrotation
						End Site
						{
							OFFSET -0.111712 -0.312793 7.857784
						}
					}
				}
			}
		}
	}
	JOINT Model_RightUpLeg
	{
		OFFSET -8.327700 -6.193199 -0.516500
		CHANNELS 3 Xrotation Yrotation Zrotation
		JOINT Model_RightLeg
		{
			OFFSET -0.735785 -42.108738 -0.434061
			CHANNELS 3 Xrotation Yrotation Zrotation
			JOINT Model_RightFoot
			{
				OFFSET 0.735776 -36.833748 -0.021630
				CHANNELS 3 Xrotation Yrotation Zrotation
				JOINT Model_RightToeBase
				{
					OFFSET 0.565817 -11.977745 15.903093
					CHANNELS 3 Xrotation Yrotation Zrotation
					JOINT Model_RightToe_End
					{
						OFFSET 0.111702 -0.312791 7.811342
						CHANNELS 3 Xrotation Yrotation Zrotation
						End Site
						{
							OFFSET 0.111702 -0.312791 7.811342
						}
					}
				}
			}
		}
	}
}
MOTION
Frames: 9
Frame Time: 0.016667
0.452530 96.261108 95.185249 15.240177 7.358964 -1.129359 6.657625 -4.863609 -1.132631 0.276659 -1.918566 0.627802 0.333203 -2.108483 0.126252 -1.118046 1.558549 3.185615 -4.736676 0.260679 -0.820087 0.000000 -0.000000 -0.000000 0.760974 -7.409066 -4.435509 -4.313948 -29.145660 -56.982236 -0.000005 -69.341617 -0.000016 0.000002 0.000000 -0.000001 -0.104986 -9.732519 10.795353 26.120860 20.631689 50.234450 0.000030 66.723059 -0.000001 0.000001 0.000003 -0.000002 -3.691202 0.723608 -3.834801 13.848824 6.495400 0.613529 -10.127494 2.459960 -1.428265 -15.139543 -0.020529 0.169888 0.000000 0.000000 -0.000000 -44.088110 -7.438949 -1.222634 83.029303 -6.809019 -3.571697 -1.105346 -11.566885 1.915076 -4.645238 -0.000001 0.000001 0.000001 0.000000 0.000001 
0.464524 96.971123 98.780731 15.545056 7.613113 -2.211404 6.766023 -5.318201 0.134940 -0.124173 -2.242980 0.855092 -0.079564 -2.372032 0.524288 -0.937582 1.697209 2.919764 -4.552279 0.289259 -0.773517 0.000001 0.000000 -0.000000 0.790117 -8.896358 -3.256111 -4.948186 -28.072962 -59.340301 -0.000050 -71.950073 -0.000023 0.000000 -0.000000 0.000001 -0.335368 -11.485784 10.697841 28.092541 18.675656 50.941791 0.000015 66.530147 -0.000018 0.000003 -0.000001 0.000000 -1.713896 2.858430 -2.249959 12.331782 5.246092 1.254935 -5.209022 2.178224 -3.027277 -20.646520 -0.039164 0.232604 -0.000000 -0.000001 -0.000000 -46.396099 -7.097504 -0.799022 77.554510 -7.162375 -3.383932 -1.564321 -12.044827 4.568500 -3.292832 -0.000010 -0.000002 -0.000005 0.000000 0.000001 
0.432851 97.718117 102.619652 15.801967 7.911518 -3.213247 6.831714 -5.836248 1.370677 -0.557379 -2.605108 1.071914 -0.525013 -2.673810 0.903981 -0.801482 1.834570 2.641716 -4.424341 0.319947 -0.701302 0.000002 -0.000000 -0.000000 0.893574 -9.942086 -2.119493 -5.156746 -26.806461 -61.022290 -0.000059 -74.811007 -0.000057 0.000000 0.000001 0.000001 -0.557513 -12.845348 10.596864 29.952295 17.087665 51.380617 0.000036 66.559148 -0.000048 0.000002 0.000001 -0.000001 -1.753315 5.536403 -0.077786 14.196418 2.671931 1.177239 0.419105 1.658736 -4.145759 -28.393014 -0.065685 0.249442 0.000000 0.000000 -0.000000 -48.257189 -6.745157 -0.137724 70.774366 -7.365045 -3.235321 -2.704028 -12.948165 5.679152 -1.696811 0.000002 0.000001 -0.000004 0.000002 -0.000000 
0.433294 98.406357 106.409729 16.554560 8.007275 -4.046112 6.877138 -6.378221 2.448836 -0.973984 -2.967694 1.271789 -0.952943 -2.983800 1.240964 -0.721503 1.957696 2.363307 -4.369039 0.341610 -0.596974 0.000003 0.000000 -0.000000 1.043584 -10.531931 -1.076215 -5.121351 -25.816257 -62.042071 0.000012 -77.774517 0.000042 -0.000000 0.000003 0.000001 -0.770318 -13.711397 10.469057 31.539645 15.748736 51.695455 0.000004 66.812965 0.000000 -0.000002 -0.000001 0.000000 -1.509454 8.114797 1.872479 13.463776 1.193041 0.862139 8.101464 0.858661 -5.430195 -36.553899 -0.103537 0.244727 0.000000 -0.000002 -0.000000 -49.365735 -6.180479 0.574748 62.477222 -8.337905 -3.277903 -1.406873 -13.969620 5.978864 -1.301177 0.000001 -0.000004 0.000001 0.000002 -0.000000 
0.496238 99.124214 110.372841 17.003099 7.926312 -4.566028 6.740458 -6.830695 3.219729 -1.218625 -3.261455 1.425953 -1.207174 -3.242164 1.483972 -0.715200 2.051661 2.100266 -4.383764 0.344378 -0.460470 0.000002 -0.000000 -0.000000 1.212370 -10.776322 -0.117791 -5.061035 -25.495915 -62.472394 0.000058 -80.709163 0.000077 0.000001 0.000001 0.000003 -0.958696 -14.104960 10.325886 32.649943 14.543291 52.009456 -0.000033 67.084957 0.000045 -0.000000 0.000002 -0.000001 -0.072839 9.929901 3.334451 10.828310 0.892992 0.872753 16.711209 -0.335043 -8.287310 -41.703547 -0.619860 1.000814 -0.000000 0.000001 -0.000000 -49.009292 -5.388984 1.206277 52.698741 -7.512647 -3.628895 0.893704 -14.372163 6.266048 -1.411258 0.000002 -0.000003 0.000001 -0.000000 0.000000 
0.612408 99.815155 114.805283 17.343124 7.804106 -4.577885 6.105895 -7.108603 3.648413 -1.126109 -3.422274 1.516015 -1.122709 -3.391182 1.600862 -0.775724 2.116480 1.837053 -4.445569 0.333778 -0.314258 0.000001 -0.000000 -0.000000 1.358758 -10.801824 0.639353 -5.078717 -26.054947 -62.381900 0.000053 -83.511958 0.000056 -0.000000 0.000002 0.000002 -1.105776 -14.213861 10.170269 33.240389 13.376051 52.358854 0.000022 67.168784 -0.000015 0.000001 -0.000000 -0.000000 0.859399 10.765205 3.609568 11.748557 1.713204 1.186478 19.281559 -0.685920 -8.007272 -34.764785 0.578438 -1.001292 -0.000000 -0.000001 0.000000 -47.525932 -4.495532 1.347561 41.225004 -7.236642 -4.190497 4.487773 -13.423110 8.281939 -1.424722 0.000008 -0.000002 0.000001 -0.000001 0.000000 
0.733542 100.269836 119.330238 17.449566 7.505842 -4.306629 5.404393 -7.098369 3.907778 -0.875327 -3.415225 1.561296 -0.877652 -3.387053 1.635736 -0.847167 2.163744 1.530634 -4.506612 0.322491 -0.188824 0.000001 0.000000 -0.000000 1.437638 -10.586755 0.983086 -5.200339 -27.332185 -61.953231 -0.000012 -85.967151 0.000044 -0.000002 -0.000000 -0.000001 -1.229272 -14.190813 9.915333 33.479344 12.209130 52.785956 0.000013 67.110789 0.000001 -0.000001 0.000001 -0.000000 3.297332 10.989016 3.270174 10.963023 4.281578 1.459381 21.959743 -0.902150 -7.224405 -25.016015 2.102192 -4.886056 0.000001 0.000002 -0.000001 -45.315098 -3.938857 1.280397 30.658407 -7.609196 -4.647573 6.876818 -10.927838 10.579787 -1.518044 -0.000008 0.000002 0.000000 0.000001 -0.000000 
0.856781 100.366051 123.857559 16.968300 6.710663 -3.736712 4.829128 -6.780216 4.163710 -0.545121 -3.278505 1.580134 -0.552606 -3.257971 1.633098 -0.848315 2.202025 1.164721 -4.503121 0.316226 -0.096348 0.000001 -0.000001 0.000000 1.437236 -10.056000 0.845523 -5.515864 -28.827981 -61.539048 0.000021 -87.713617 0.000059 -0.000000 -0.000001 0.000001 -1.345497 -13.984676 9.554778 33.544650 11.057194 53.251358 -0.000011 67.009333 0.000007 0.000000 0.000000 -0.000000 5.622647 10.671319 2.705242 12.865509 6.261279 1.834118 21.381390 -1.002972 -7.219479 -8.735732 0.867638 -6.589182 0.000001 -0.000001 0.000001 -43.070596 -3.844080 1.112806 22.483092 -8.177205 -4.730124 6.918380 -7.272224 13.143001 -1.759779 -0.000000 -0.000004 -0.000000 0.000001 -0.000000 
0.917975 100.193741 128.491745 16.353568 6.330505 -3.414246 4.429058 -6.321415 4.430964 -0.204625 -3.116793 1.597561 -0.217738 -3.103257 1.632860 -0.730878 2.233304 0.783605 -4.391869 0.312504 -0.027829 0.000000 0.000000 -0.000000 1.391642 -9.272563 0.390429 -6.089990 -29.993919 -61.478061 0.000129 -88.481877 0.000318 -0.000000 -0.000002 -0.000002 -1.414406 -13.474668 9.310433 33.482909 9.948348 53.498082 -0.000039 66.828319 0.000046 -0.000000 0.000002 -0.000001 6.329235 9.623971 2.147735 18.714614 6.676940 2.610846 19.071599 -0.854589 -6.800311 -1.653599 0.000007 0.000001 -0.000003 0.000000 -0.000000 -41.267224 -4.045410 0.652349 16.705405 -8.891667 -4.300661 8.062534 -3.381676 17.004951 -1.972946 0.000002 0.000008 0.000001 -0.000000 0.000000 
